# xmcd
#
# Track frame offsets: 
#        150
#        11883
#        25233
#        44379
#        57129
#        70000
#        82329
#        93943
#        109629
#        124017
#        136625
#
# Disc length: 2044 seconds
#
# Revision: 0
# Processed by: cddbd v1.5.2PL0 Copyright (c) Steve Scherf et al.
# Submitted via: ExactAudioCopy v0.99pb5
#
DISCID=8a07fa0b
DTITLE=Robert and Renan - Robert and Renan
DYEAR=2012
DGENRE=sertanejo
TTITLE0=Pegada Violenta
TTITLE1=Dez Minuto de Fama
TTITLE2=Pot-Pourri
TTITLE3=Feiticeira
TTITLE4=Cinco Motivos
TTITLE5=Ingrata
TTITLE6=Amiga Traira
TTITLE7=O Cume que eu to
TTITLE8=Anjo Meu
TTITLE9=Doce Tentação
TTITLE10=So Saio com as Top
EXTD=
EXTT0=
EXTT1=
EXTT2=
EXTT3=
EXTT4=
EXTT5=
EXTT6=
EXTT7=
EXTT8=
EXTT9=
EXTT10=
PLAYORDER=
